<?xml version="1.0" standalone="no"?>
<!DOCTYPE svg PUBLIC "-//W3C//DTD SVG 20010904//EN"
 "http://www.w3.org/TR/2001/REC-SVG-20010904/DTD/svg10.dtd">
<svg version="1.0" xmlns="http://www.w3.org/2000/svg"
 width="260.000000pt" height="148.000000pt" viewBox="0 0 260.000000 148.000000"
 preserveAspectRatio="xMidYMid meet">
<metadata>
Created by potrace 1.10, written by Peter Selinger 2001-2011
</metadata>
<g transform="translate(0.000000,148.000000) scale(0.100000,-0.100000)"
fill="#000000" stroke="none">
<path d="M1244 1342 c-12 -9 -27 -27 -33 -39 -16 -31 -14 -118 4 -186 21 -81
20 -88 -26 -191 -23 -50 -49 -121 -58 -159 -10 -37 -25 -75 -34 -84 -14 -14
-21 -11 -74 34 -32 28 -78 64 -103 80 -63 43 -74 59 -100 138 -42 132 -88 185
-159 185 -40 0 -89 -43 -96 -84 -9 -47 12 -91 90 -179 67 -76 68 -78 77 -155
25 -199 63 -299 151 -398 27 -30 73 -68 101 -84 50 -29 109 -39 121 -21 3 6
29 -2 57 -17 45 -23 64 -27 143 -27 78 0 96 3 135 25 36 21 50 24 72 16 89
-32 256 116 318 282 12 31 28 108 36 169 15 126 26 152 79 203 97 91 122 184
66 241 -23 23 -39 29 -70 29 -64 0 -107 -50 -150 -174 -34 -99 -34 -99 -99
-145 -36 -25 -88 -66 -114 -90 -48 -44 -49 -44 -68 -25 -10 10 -26 48 -35 84
-9 36 -34 104 -55 151 -45 96 -47 118 -24 216 32 137 -3 223 -90 223 -24 0
-50 -8 -62 -18z m111 -26 c32 -32 39 -78 23 -156 l-14 -65 -38 -3 c-70 -6 -83
2 -95 58 -18 84 -14 125 15 159 32 39 75 41 109 7z m-631 -246 c24 -22 41 -50
57 -97 l22 -66 -24 -18 c-13 -10 -37 -24 -53 -31 -29 -11 -31 -10 -78 42 -58
65 -75 108 -56 147 13 28 50 53 80 53 10 0 33 -14 52 -30z m1255 15 c66 -34
56 -99 -32 -199 -33 -39 -35 -39 -66 -26 -17 7 -42 21 -55 31 l-24 19 19 52
c30 81 42 100 74 120 36 22 48 22 84 3z m-619 -50 c0 -24 -3 -25 -55 -25 -52
0 -55 1 -55 25 0 24 3 25 55 25 52 0 55 -1 55 -25z m49 -148 c36 -83 60 -167
49 -167 -3 0 -19 7 -37 16 -42 21 -136 29 -185 15 -22 -6 -42 -9 -44 -7 -2 3
5 37 16 76 11 39 16 68 12 63 -12 -13 -40 -92 -40 -112 0 -19 -39 -74 -40 -56
0 23 24 96 61 180 l40 90 64 -3 64 -4 40 -91z m-580 -36 c12 -21 6 -28 -47
-55 -32 -17 -34 -17 -47 1 -12 16 -10 20 20 35 19 10 37 22 40 28 10 15 23 12
34 -9z m1051 -39 c0 -4 -4 -13 -9 -21 -11 -16 -36 -9 -76 23 -25 20 -27 26
-17 39 11 13 18 12 57 -10 25 -14 45 -28 45 -31z m-856 -123 c40 -36 41 -37
23 -57 -29 -32 -57 -118 -57 -175 0 -73 24 -137 72 -191 32 -37 37 -47 24 -52
-37 -14 -142 48 -199 119 -41 50 -91 146 -106 202 -5 22 -13 69 -16 105 -3 36
-8 75 -11 87 -3 17 3 24 29 32 17 6 43 20 56 30 25 19 25 19 84 -23 33 -22 78
-57 101 -77z m790 76 l38 -16 -7 -82 c-14 -157 -66 -275 -162 -369 -99 -95
-216 -126 -138 -36 66 77 85 206 45 310 l-20 53 58 58 c31 33 48 55 36 49 -11
-6 -39 -30 -62 -53 -24 -23 -45 -39 -49 -35 -10 10 26 45 111 108 71 52 81 56
96 43 8 -8 33 -21 54 -30z m-454 -59 c0 -6 24 -28 53 -49 91 -66 142 -109 149
-126 12 -29 8 -131 -6 -165 -41 -98 -222 -153 -330 -101 -90 43 -146 129 -146
224 0 47 5 49 36 20 18 -17 26 -19 42 -10 18 9 24 7 42 -19 24 -33 44 -38 66
-15 12 11 14 34 10 106 -6 108 -19 131 -61 109 -13 -7 -27 -21 -31 -32 -3 -11
-15 -18 -29 -18 -13 0 -27 -4 -30 -10 -8 -14 -25 -13 -25 2 0 23 78 84 111 86
18 1 35 5 38 8 10 10 111 1 111 -10z m113 -23 c33 -23 77 -78 77 -98 0 -4 -18
13 -40 38 -23 26 -59 53 -85 63 -25 11 -45 23 -45 28 0 14 53 -4 93 -31z
m-226 -34 c-23 -13 -22 -42 3 -64 24 -21 26 -45 5 -45 -17 0 -21 -35 -5 -45
14 -9 12 -25 -3 -25 -19 0 -39 39 -32 61 4 11 16 24 28 29 22 8 21 8 -5 18
-27 11 -44 44 -33 63 8 12 48 29 55 22 3 -2 -3 -9 -13 -14z m-188 -66 c-38
-108 -13 -217 68 -295 102 -99 271 -108 374 -20 22 19 42 32 45 29 10 -10 -89
-86 -133 -101 -64 -22 -168 -20 -220 3 -149 68 -216 240 -149 386 14 30 27 55
30 55 3 0 -4 -26 -15 -57z m111 18 c0 -5 -7 -11 -15 -15 -18 -6 -20 -37 -3
-54 17 -17 2 -28 -17 -12 -20 16 -19 54 1 74 17 18 34 21 34 7z"/>
<path d="M1239 1264 c-10 -29 3 -88 23 -101 8 -4 9 0 2 13 -4 10 -9 40 -9 67
0 26 -1 47 -3 47 -1 0 -7 -12 -13 -26z"/>
<path d="M600 1018 c0 -27 35 -88 51 -88 6 0 1 12 -10 26 -12 15 -21 40 -21
55 0 16 -4 29 -10 29 -5 0 -10 -10 -10 -22z"/>
<path d="M1901 1066 c-29 -16 -50 -53 -50 -86 0 -23 2 -22 12 8 7 17 25 46 40
62 32 34 32 35 -2 16z"/>
<path d="M781 664 c-2 -48 36 -182 65 -233 34 -58 109 -148 137 -162 11 -7 -2
15 -30 47 -80 93 -130 194 -159 324 -9 42 -12 48 -13 24z"/>
</g>
</svg>
